<?xml version="1.0" encoding="utf-8"?>
<!-- Generator: Adobe Illustrator 23.0.6, SVG Export Plug-In . SVG Version: 6.00 Build 0)  -->
<svg version="1.1" id="Layer_1" xmlns="http://www.w3.org/2000/svg" xmlns:xlink="http://www.w3.org/1999/xlink" x="0px" y="0px"
	 viewBox="0 0 144 144" style="enable-background:new 0 0 144 144;" xml:space="preserve">
<style type="text/css">
	.st0{fill:#FFFFFF;}
</style>
<g>
	<g>
		<path d="M8.24,96.84c3.07-2.47,6.15-4.95,9.22-7.42c0.83-0.67,1.66-1.34,2.59-2.08c0.38,0.94,0.7,1.73,1.07,2.64
			c0.93-0.33,1.81-0.65,2.84-1.02c-0.36-1.1-0.7-2.13-1.07-3.27c1.26-0.45,2.48-0.9,3.79-1.37c0.4,1.06,0.77,2.06,1.17,3.14
			c0.48-0.18,0.92-0.34,1.46-0.53c-0.35-1.05-0.68-2.05-1.05-3.15c1.26-0.46,2.45-0.89,3.79-1.37c0.29,0.76,0.61,1.48,0.82,2.22
			c0.23,0.83,0.59,0.97,1.32,0.37c-0.32-0.94-0.64-1.91-1-2.98c1.27-0.45,2.49-0.89,3.8-1.36c0.38,1.02,0.73,1.94,1.12,2.98
			c1.44-0.54,2.85-1.05,4.25-1.61c0.19-0.08,0.4-0.38,0.42-0.59c0.2-2.47,0.36-4.94,0.54-7.6c-5.49,0-10.9,0-16.39,0
			c0-1.85,0-3.52,0-5.29c5.59,0,11.12,0,16.76,0c0.14-2,0.31-3.9,0.39-5.81c0.01-0.24-0.35-0.61-0.62-0.73
			c-4.2-1.94-8.41-3.85-12.75-5.83c-0.34,0.7-0.67,1.36-1.08,2.21c-3.14-2.95-6.2-5.82-9.26-8.7c0.02-0.08,0.05-0.16,0.07-0.24
			c4.18,0.41,8.35,0.83,12.69,1.26c-0.34,0.8-0.62,1.44-0.93,2.16c0.23,0.15,0.45,0.32,0.68,0.42c3.74,1.71,7.48,3.42,11.23,5.09
			c0.33,0.15,0.93,0.21,1.16,0.02c2.09-1.73,4.13-3.52,6.21-5.33c-3.36-4.43-6.66-8.79-10.05-13.25c1.41-1.08,2.75-2.11,4.2-3.21
			c3.31,4.35,6.56,8.63,9.87,12.97c1.32-1.13,2.57-2.18,3.78-3.28c0.21-0.19,0.36-0.65,0.27-0.9c-0.54-1.58-1.16-3.14-1.8-4.81
			c-1.09,0.42-2.12,0.81-3.28,1.25c-0.49-1.23-0.97-2.43-1.5-3.75c1.11-0.46,2.16-0.9,3.32-1.39c-0.17-0.47-0.33-0.89-0.53-1.44
			c-1.15,0.43-2.21,0.82-3.39,1.26c-0.5-1.26-0.98-2.46-1.49-3.75c1.15-0.47,2.21-0.9,3.36-1.37c-0.1-0.33-0.19-0.65-0.32-1.06
			c-1.15,0.44-2.22,0.85-3.47,1.33c-0.5-1.25-0.97-2.45-1.5-3.78c1.19-0.48,2.32-0.94,3.52-1.43c-0.39-1.02-0.73-1.94-1.12-2.96
			c-0.92,0.31-1.76,0.6-2.74,0.93c-0.12-4.08-0.23-7.99-0.35-11.89c-0.04-1.12-0.13-2.23-0.2-3.34c0.08,0,0.16,0,0.24,0
			c2.47,3.07,4.95,6.15,7.42,9.22c0.67,0.83,1.34,1.66,2.08,2.59c-0.94,0.38-1.74,0.7-2.66,1.07c0.35,0.96,0.69,1.88,1.06,2.89
			c0.97-0.36,1.86-0.69,2.9-1.08c0.48,1.21,0.96,2.41,1.49,3.73c-0.97,0.41-1.9,0.81-2.92,1.24c0.13,0.34,0.24,0.62,0.39,1.01
			c0.97-0.37,1.89-0.72,2.95-1.12c0.5,1.25,0.97,2.45,1.5,3.76c-1.01,0.42-1.95,0.81-3,1.25c0.17,0.47,0.32,0.9,0.52,1.45
			c1.04-0.39,1.99-0.75,3.07-1.16c0.5,1.26,0.98,2.46,1.49,3.76c-1.05,0.44-2.03,0.85-3.09,1.3c0.66,1.76,1.28,3.48,1.95,5.18
			c0.08,0.2,0.39,0.42,0.61,0.44c1.9,0.17,3.81,0.31,5.9,0.46c-0.16-5.71-0.33-11.32-0.49-17.11c1.73,0,3.41,0,5.26,0
			c0.08,2.56,0.16,5.22,0.24,7.88c0.08,2.88,0.18,5.75,0.23,8.63c0.01,0.77,0.29,1.05,1.05,1.08c1.8,0.08,3.59,0.27,5.38,0.34
			c0.33,0.01,0.86-0.25,0.99-0.53c2.12-4.56,4.19-9.13,6.31-13.79c-0.71-0.36-1.37-0.69-2.19-1.1c2.95-3.14,5.83-6.2,8.7-9.25
			c0.08,0.03,0.16,0.06,0.23,0.09c-0.42,4.18-0.83,8.36-1.26,12.68c-0.81-0.35-1.46-0.62-2.18-0.93c-0.15,0.25-0.31,0.47-0.42,0.71
			c-2.04,4.47-4.05,8.94-6.11,13.4c-0.29,0.64-0.27,1.06,0.22,1.59c1.24,1.34,2.41,2.75,3.67,4.2c4.78-3.92,9.48-7.77,14.3-11.72
			c1.1,1.34,2.17,2.65,3.35,4.09c-4.71,3.87-9.39,7.72-14.17,11.65c1.23,1.43,2.41,2.82,3.63,4.17c0.13,0.14,0.51,0.19,0.72,0.12
			c2.47-0.9,4.93-1.82,7.46-2.77c-0.35-1.05-0.67-2.02-1.03-3.1c1.28-0.46,2.46-0.88,3.8-1.36c0.28,0.75,0.57,1.43,0.77,2.14
			c0.23,0.8,0.6,0.97,1.32,0.38c-0.31-0.92-0.63-1.85-0.98-2.9c1.27-0.46,2.49-0.9,3.8-1.37c0.37,0.98,0.71,1.9,1.09,2.91
			c0.48-0.18,0.91-0.35,1.44-0.55c-0.31-0.96-0.6-1.86-0.94-2.89c1.27-0.46,2.48-0.9,3.78-1.37c0.36,0.95,0.7,1.83,1.07,2.81
			c0.87-0.32,1.68-0.62,2.59-0.96c-0.31-0.92-0.6-1.76-0.94-2.74c4.09-0.12,7.99-0.23,11.9-0.35c1.12-0.04,2.23-0.13,3.34-0.2
			c0,0.08,0,0.16,0,0.24c-3.07,2.47-6.15,4.95-9.22,7.42c-0.83,0.67-1.66,1.34-2.59,2.08c-0.38-0.94-0.7-1.74-1.07-2.66
			c-0.88,0.32-1.72,0.63-2.64,0.97c0.41,1.23,0.79,2.36,1.23,3.66c-1.23,0.45-2.44,0.88-3.81,1.38c-0.44-1.2-0.86-2.34-1.32-3.56
			c-0.51,0.18-0.94,0.34-1.47,0.53c0.42,1.2,0.8,2.32,1.23,3.55c-1.24,0.45-2.47,0.89-3.8,1.38c-0.44-1.16-0.85-2.27-1.28-3.4
			c-0.75,0.09-1.17,0.26-0.79,1.11c0.35,0.8,0.58,1.65,0.93,2.65c-1.24,0.46-2.45,0.9-3.79,1.4c-0.43-1.13-0.83-2.2-1.28-3.4
			c-2.12,0.79-4.17,1.67-6.29,2.3c-1.51,0.45-2.11,1.21-2.02,2.79c0.08,1.3-0.16,2.62-0.27,4.15c6.3,0,12.51,0,18.77,0
			c0,1.88,0,3.55,0,5.28c-6.39,0-12.73,0-19.15,0c-0.11,1.68-0.24,3.3-0.31,4.93c-0.01,0.25,0.2,0.64,0.41,0.74
			c5.32,2.45,10.66,4.87,16.05,7.33c0.35-0.73,0.66-1.37,1.07-2.21c3.13,2.94,6.2,5.81,9.26,8.69c-0.02,0.08-0.04,0.17-0.06,0.25
			c-4.17-0.41-8.34-0.82-12.69-1.25c0.35-0.82,0.63-1.49,0.95-2.25c-2.09-0.96-4.12-1.88-6.14-2.81c-2.94-1.34-5.89-2.67-8.82-4.03
			c-0.61-0.29-1.04-0.31-1.58,0.19c-1.5,1.38-3.06,2.68-4.68,4.09c3.86,5.09,7.69,10.13,11.56,15.24c-1.42,1.08-2.78,2.11-4.21,3.19
			c-3.79-4.99-7.54-9.91-11.37-14.95c-1.06,0.92-2.1,1.78-3.08,2.71c-0.19,0.18-0.26,0.66-0.17,0.92c0.94,2.63,1.94,5.24,2.96,7.98
			c1.1-0.41,2.16-0.81,3.29-1.23c0.5,1.27,0.97,2.48,1.47,3.76c-1.11,0.46-2.14,0.88-3.28,1.34c0.18,0.49,0.35,0.95,0.55,1.46
			c1.12-0.43,2.16-0.83,3.33-1.28c0.49,1.22,0.97,2.43,1.5,3.75c-1.11,0.46-2.17,0.9-3.26,1.36c-0.02,0.86,0.25,1.16,1.12,0.77
			c0.79-0.36,1.63-0.64,2.58-1c0.5,1.25,0.97,2.45,1.49,3.76c-1.18,0.49-2.27,0.94-3.48,1.44c0.34,0.91,0.68,1.79,1.04,2.76
			c0.92-0.31,1.76-0.6,2.73-0.93c0.12,4.08,0.23,7.99,0.35,11.89c0.04,1.12,0.13,2.23,0.2,3.34c-0.08,0-0.16,0-0.24,0
			c-2.47-3.07-4.95-6.15-7.42-9.22c-0.67-0.83-1.34-1.66-2.08-2.58c0.94-0.38,1.74-0.7,2.65-1.07c-0.32-0.89-0.62-1.74-0.97-2.72
			c-0.97,0.36-1.89,0.7-2.94,1.09c-0.48-1.22-0.97-2.42-1.49-3.74c0.99-0.41,1.93-0.81,2.93-1.23c-0.13-0.35-0.23-0.63-0.37-1
			c-0.98,0.37-1.9,0.71-2.98,1.11c-0.49-1.23-0.97-2.43-1.5-3.76c1.02-0.42,1.99-0.82,3.03-1.24c-0.18-0.5-0.33-0.9-0.52-1.44
			c-1.05,0.38-2.04,0.74-3.12,1.13c-0.49-1.26-0.97-2.48-1.47-3.75c1.07-0.44,2.05-0.85,3.12-1.29c-0.85-2.28-1.66-4.48-2.51-6.67
			c-0.07-0.18-0.39-0.36-0.61-0.38c-1.91-0.17-3.82-0.3-5.92-0.46c0.16,5.88,0.33,11.68,0.49,17.65c-1.73,0-3.42,0-5.26,0
			c-0.18-5.91-0.36-11.89-0.55-18.02c-1.93-0.13-3.78-0.27-5.64-0.35c-0.23-0.01-0.58,0.27-0.68,0.5
			c-2.28,4.96-4.54,9.94-6.82,14.97c0.73,0.37,1.39,0.71,2.18,1.11c-2.95,3.14-5.81,6.18-8.67,9.22c-0.09-0.02-0.17-0.03-0.26-0.05
			c0.41-4.17,0.82-8.34,1.25-12.69c0.82,0.35,1.49,0.63,2.26,0.96c2.17-4.78,4.32-9.48,6.39-14.03c-0.69-0.55-1.34-0.95-1.84-1.49
			c-1.19-1.29-2.32-2.64-3.53-4.04c-4.45,3.64-8.86,7.26-13.39,10.97c-1.12-1.35-2.2-2.66-3.37-4.07c4.42-3.63,8.8-7.22,13.28-10.91
			c-1.19-1.38-2.31-2.71-3.49-4c-0.14-0.16-0.59-0.18-0.83-0.1c-1.88,0.67-3.74,1.38-5.75,2.13c0.4,1.15,0.79,2.25,1.21,3.48
			c-1.26,0.46-2.48,0.9-3.8,1.39c-0.42-1.12-0.82-2.19-1.26-3.36c-0.34,0.11-0.65,0.22-1.04,0.35c0.39,1.13,0.75,2.18,1.17,3.38
			c-1.25,0.45-2.46,0.89-3.82,1.38c-0.42-1.13-0.81-2.18-1.23-3.31c-0.49,0.18-0.89,0.33-1.43,0.52c0.36,1.1,0.71,2.14,1.09,3.32
			c-1.22,0.45-2.44,0.89-3.78,1.37c-0.41-1.08-0.8-2.11-1.23-3.24c-0.92,0.35-1.8,0.68-2.78,1.05c0.31,0.92,0.6,1.76,0.93,2.73
			c-4.08,0.12-7.99,0.23-11.89,0.35c-1.12,0.04-2.23,0.13-3.34,0.2C8.24,97,8.24,96.92,8.24,96.84z M94.66,133.67
			c0-3.56,0-6.97,0-10.54c-0.98,0.32-1.71,0.55-2.49,0.81c-0.59-1.61-1.15-3.13-1.72-4.67c1.24-0.52,2.33-0.97,3.45-1.43
			c-0.27-0.66-0.49-1.21-0.73-1.82c-1.18,0.44-2.28,0.86-3.46,1.3c-0.39-1.04-0.74-1.99-1.11-2.97c1.2-0.48,2.26-0.91,3.39-1.36
			c-0.29-0.68-0.52-1.24-0.77-1.83c-1.18,0.45-2.21,0.85-3.35,1.28c-0.43-1.17-0.84-2.27-1.27-3.41c1.16-0.48,2.18-0.89,3.29-1.35
			c-0.27-0.65-0.5-1.21-0.75-1.81c-1.17,0.43-2.2,0.81-3.28,1.2c-1.24-3.29-2.44-6.46-3.6-9.64c-0.09-0.24-0.06-0.7,0.1-0.84
			c1.46-1.33,2.97-2.62,4.53-3.98c3.86,5.08,7.63,10.03,11.43,15.02c0.89-0.69,1.7-1.31,2.53-1.95
			c-3.88-5.11-7.68-10.13-11.51-15.17c1.85-1.6,3.57-3.16,5.37-4.62c0.79-0.64,1.09-1.37,1.14-2.35c0.12-2.5,0.34-5,0.52-7.6
			c6.44,0,12.77,0,19.07,0c0-1.09,0-2.07,0-3.24c-6.3,0-12.52,0-18.84,0c0.18-2.62,0.31-5.05,0.54-7.46
			c0.03-0.29,0.53-0.64,0.89-0.78c1.74-0.7,3.51-1.33,5.26-1.99c2.8-1.05,5.6-2.1,8.49-3.18c0.44,1.2,0.85,2.31,1.28,3.51
			c0.65-0.25,1.22-0.46,1.84-0.69c-0.41-1.25-0.78-2.37-1.18-3.55c1.18-0.44,2.25-0.84,3.38-1.26c0.46,1.23,0.89,2.38,1.34,3.59
			c0.66-0.24,1.24-0.45,1.86-0.68c-0.43-1.27-0.83-2.43-1.24-3.65c1.58-0.59,3.05-1.14,4.57-1.71c0.33,0.8,0.61,1.48,0.95,2.29
			c2.76-2.25,5.42-4.43,8.06-6.59c-3.52,0-6.95,0-10.55,0c0.34,0.97,0.59,1.67,0.86,2.46c-1.55,0.57-3.02,1.12-4.55,1.69
			c-0.38-1-0.72-1.87-1.08-2.82c-0.68,0.25-1.26,0.46-1.85,0.68c0.35,1.04,0.66,1.94,0.98,2.89c-1.17,0.44-2.24,0.83-3.37,1.25
			c-0.41-1.03-0.76-1.94-1.14-2.9c-0.68,0.26-1.23,0.46-1.82,0.68c0.35,1.03,0.66,1.96,0.99,2.97c-1.03,0.38-1.95,0.73-2.94,1.1
			c-0.39-1.04-0.76-2-1.14-3.01c-0.67,0.26-1.24,0.48-1.85,0.71c0.36,1.05,0.68,1.99,1.04,3.03c-3.09,1.16-6.1,2.3-9.12,3.41
			c-0.2,0.07-0.58-0.01-0.72-0.17c-1.59-1.78-3.14-3.6-4.78-5.49c4.77-3.92,9.45-7.76,14.21-11.67c-0.72-0.86-1.37-1.64-2.05-2.46
			c-4.8,3.93-9.49,7.78-14.26,11.68c-1.62-1.87-3.17-3.69-4.77-5.46c-0.48-0.53-0.51-0.95-0.21-1.58c1.6-3.44,3.15-6.9,4.73-10.35
			c0.8-1.77,1.61-3.54,2.44-5.36c0.67,0.28,1.24,0.51,1.89,0.78c0.28-2.86,0.55-5.55,0.85-8.58c-2.09,2.22-3.96,4.21-5.9,6.26
			c0.66,0.35,1.21,0.64,1.8,0.96c-2.34,5.14-4.64,10.23-7,15.29c-0.15,0.32-0.79,0.62-1.18,0.6c-2.31-0.1-4.62-0.33-6.94-0.45
			c-0.73-0.04-0.93-0.33-0.95-1.03c-0.06-3.12-0.16-6.23-0.26-9.35c-0.08-2.42-0.17-4.84-0.26-7.35c-1.14,0.06-2.11,0.12-3.19,0.18
			c0.17,5.78,0.33,11.43,0.5,17.19c-2.08-0.13-4.02-0.36-5.97-0.35c-1.66,0-2.58-0.55-3.01-2.25c-0.44-1.75-1.22-3.42-1.86-5.15
			c1.1-0.46,2.05-0.86,3.07-1.28c-0.27-0.66-0.5-1.22-0.74-1.83c-1.09,0.41-2.05,0.77-3.08,1.16c-0.43-1.18-0.83-2.28-1.24-3.4
			c1.06-0.45,1.97-0.83,2.95-1.24c-0.26-0.66-0.49-1.23-0.72-1.82c-1.05,0.39-1.97,0.74-2.98,1.12c-0.38-1.02-0.73-1.97-1.1-2.96
			c1.05-0.44,1.95-0.82,2.9-1.22c-0.27-0.69-0.49-1.23-0.72-1.81c-1.01,0.37-1.93,0.71-2.92,1.07c-0.62-1.66-1.2-3.21-1.8-4.81
			c0.78-0.34,1.48-0.65,2.27-0.99c-2.26-2.76-4.42-5.41-6.6-8.07c0,3.53,0,6.96,0,10.55c0.98-0.32,1.71-0.55,2.49-0.81
			c0.61,1.66,1.19,3.22,1.8,4.85c-1.2,0.5-2.31,0.97-3.48,1.45c0.28,0.67,0.5,1.22,0.75,1.81c1.17-0.44,2.28-0.86,3.48-1.31
			c0.38,1.03,0.72,1.94,1.1,2.95c-1.17,0.49-2.25,0.94-3.38,1.41c0.27,0.68,0.49,1.22,0.72,1.82c1.15-0.44,2.22-0.85,3.39-1.29
			c0.43,1.15,0.84,2.24,1.28,3.4c-1.18,0.48-2.23,0.91-3.31,1.36c0.27,0.68,0.48,1.22,0.72,1.83c1.16-0.44,2.22-0.83,3.32-1.24
			c0.83,2.2,1.63,4.29,2.38,6.39c0.09,0.26,0,0.75-0.19,0.93c-1.68,1.52-3.41,2.98-5.2,4.53c-3.32-4.37-6.58-8.65-9.91-13.03
			c-0.9,0.68-1.7,1.3-2.54,1.94c3.39,4.48,6.69,8.83,10.01,13.21c-2.48,2.15-4.85,4.24-7.28,6.26c-0.29,0.24-0.98,0.26-1.35,0.09
			c-4.27-1.89-8.52-3.84-12.77-5.78c-0.24-0.11-0.45-0.27-0.68-0.4c0.25-0.63,0.46-1.17,0.72-1.83c-2.82-0.28-5.52-0.55-8.57-0.85
			c2.25,2.11,4.24,3.98,6.29,5.91c0.36-0.7,0.63-1.25,0.92-1.82c5.08,2.31,10.05,4.58,15.03,6.85c-0.2,2.68-0.4,5.25-0.6,7.88
			c-5.62,0-11.12,0-16.66,0c0,1.08,0,2.09,0,3.27c5.52,0,10.94,0,16.43,0c-0.15,2.24-0.34,4.3-0.42,6.37
			c-0.04,1.04,0.12,2.08,0.19,3.3c-2,0.75-4.31,1.61-6.69,2.5c-0.4-1.05-0.74-1.97-1.13-2.98c-0.63,0.23-1.21,0.44-1.83,0.66
			c0.35,1.09,0.66,2.06,0.98,3.06c-1.04,0.39-1.96,0.73-2.93,1.1c-0.41-1.07-0.77-2.03-1.16-3.07c-0.67,0.24-1.25,0.46-1.86,0.68
			c0.37,1.08,0.7,2.05,1.07,3.13c-1.17,0.44-2.26,0.85-3.4,1.27c-0.42-1.14-0.78-2.1-1.17-3.16c-0.68,0.25-1.25,0.46-1.86,0.69
			c0.4,1.14,0.75,2.14,1.12,3.2c-1.67,0.62-3.22,1.19-4.79,1.78c-0.34-0.8-0.62-1.48-0.96-2.28c-2.76,2.26-5.42,4.44-8.09,6.63
			c3.55,0,6.97,0,10.58,0c-0.32-0.97-0.57-1.7-0.83-2.5c1.6-0.59,3.12-1.16,4.73-1.75c0.42,1.11,0.82,2.13,1.24,3.23
			c0.67-0.25,1.24-0.47,1.84-0.7c-0.4-1.15-0.75-2.16-1.13-3.27c1.14-0.43,2.24-0.84,3.38-1.27c0.45,1.18,0.86,2.24,1.27,3.33
			c0.69-0.25,1.27-0.47,1.85-0.68c-0.41-1.2-0.78-2.24-1.17-3.39c1.02-0.37,1.97-0.72,2.96-1.09c0.46,1.2,0.87,2.26,1.3,3.39
			c0.68-0.25,1.22-0.46,1.83-0.68c-0.41-1.19-0.78-2.28-1.19-3.45c2.54-0.95,5-1.88,7.47-2.77c0.23-0.08,0.65,0.01,0.81,0.18
			c1.54,1.73,3.03,3.49,4.59,5.29c-4.46,3.67-8.87,7.28-13.3,10.92c0.73,0.88,1.36,1.64,2.04,2.47c4.49-3.68,8.9-7.29,13.38-10.96
			c1.08,1.24,2.15,2.37,3.1,3.59c0.93,1.18,1.86,2.28,3.56,2.17c0.05,0,0.1,0.1,0.19,0.19c-2.48,5.45-4.97,10.92-7.47,16.41
			c-0.7-0.27-1.27-0.49-1.91-0.74c-0.28,2.85-0.55,5.53-0.85,8.55c2.1-2.24,3.97-4.22,5.9-6.28c-0.68-0.36-1.23-0.64-1.81-0.94
			c2.62-5.75,5.19-11.41,7.8-17.13c2.56,0.19,5.1,0.37,7.72,0.56c0.19,6.05,0.37,12.02,0.55,17.99c1.12,0,2.1,0,3.21,0
			c-0.17-5.95-0.34-11.8-0.51-17.75c1.82,0.13,3.44,0.31,5.07,0.34c0.92,0.02,1.85-0.21,2.92-0.34c1.08,2.88,2.25,6.01,3.43,9.17
			c-1.09,0.45-2.07,0.86-3.13,1.3c0.29,0.67,0.54,1.22,0.8,1.82c1.09-0.41,2.04-0.78,3.05-1.16c0.44,1.19,0.84,2.26,1.27,3.41
			c-1.03,0.42-1.97,0.81-3.02,1.23c0.27,0.66,0.5,1.22,0.75,1.83c1.05-0.4,1.97-0.75,2.99-1.14c0.38,1.03,0.72,1.98,1.09,2.97
			c-1.03,0.43-1.94,0.81-2.91,1.22c0.26,0.66,0.49,1.23,0.71,1.81c1.07-0.39,1.98-0.73,2.96-1.08c0.6,1.61,1.15,3.09,1.73,4.63
			c-0.78,0.34-1.48,0.64-2.27,0.99C90.32,128.37,92.48,131.01,94.66,133.67z M96.97,83.61c-0.53,1.22,0.05,1.66,0.98,2.07
			c4.84,2.16,9.66,4.37,14.48,6.57c0.31,0.14,0.6,0.32,0.89,0.48c-0.25,0.64-0.46,1.18-0.72,1.83c2.83,0.28,5.52,0.55,8.57,0.85
			c-2.25-2.11-4.23-3.97-6.28-5.9c-0.36,0.68-0.64,1.23-0.94,1.81C108.25,88.73,102.63,86.18,96.97,83.61z M108.14,64.52
			c0.7-0.26,1.26-0.46,1.88-0.69c-0.3-0.83-0.57-1.6-0.88-2.47c-0.66,0.25-1.23,0.48-1.88,0.72
			C107.57,62.93,107.83,63.66,108.14,64.52z"/>
		<path class="st0" d="M94.66,133.67c-2.18-2.66-4.34-5.3-6.6-8.06c0.79-0.34,1.5-0.65,2.27-0.99c-0.57-1.54-1.13-3.02-1.73-4.63
			c-0.97,0.36-1.89,0.69-2.96,1.08c-0.23-0.58-0.45-1.15-0.71-1.81c0.97-0.41,1.88-0.79,2.91-1.22c-0.36-0.99-0.71-1.94-1.09-2.97
			c-1.02,0.39-1.94,0.74-2.99,1.14c-0.25-0.61-0.48-1.17-0.75-1.83c1.04-0.43,1.99-0.81,3.02-1.23c-0.43-1.15-0.83-2.22-1.27-3.41
			c-1.01,0.39-1.97,0.75-3.05,1.16c-0.26-0.59-0.51-1.15-0.8-1.82c1.06-0.44,2.04-0.85,3.13-1.3c-1.19-3.17-2.35-6.29-3.43-9.17
			c-1.07,0.13-2,0.36-2.92,0.34c-1.63-0.03-3.26-0.21-5.07-0.34c0.17,5.96,0.34,11.8,0.51,17.75c-1.12,0-2.1,0-3.21,0
			c-0.18-5.97-0.36-11.94-0.55-17.99c-2.61-0.19-5.15-0.38-7.72-0.56c-2.6,5.72-5.18,11.39-7.8,17.13c0.58,0.3,1.13,0.59,1.81,0.94
			c-1.93,2.05-3.8,4.04-5.9,6.28c0.3-3.02,0.57-5.7,0.85-8.55c0.63,0.24,1.2,0.46,1.91,0.74c2.5-5.49,4.99-10.95,7.47-16.41
			c-0.09-0.09-0.14-0.2-0.19-0.19c-1.7,0.11-2.63-0.99-3.56-2.17c-0.96-1.22-2.03-2.35-3.1-3.59c-4.48,3.67-8.89,7.28-13.38,10.96
			c-0.68-0.82-1.31-1.59-2.04-2.47c4.43-3.64,8.84-7.26,13.3-10.92c-1.56-1.81-3.06-3.57-4.59-5.29c-0.15-0.17-0.58-0.26-0.81-0.18
			c-2.47,0.89-4.93,1.82-7.47,2.77c0.41,1.18,0.78,2.26,1.19,3.45c-0.6,0.22-1.15,0.43-1.83,0.68c-0.43-1.13-0.84-2.19-1.3-3.39
			c-0.99,0.36-1.94,0.71-2.96,1.09c0.4,1.15,0.76,2.19,1.17,3.39c-0.58,0.22-1.16,0.43-1.85,0.68c-0.42-1.08-0.82-2.15-1.27-3.33
			c-1.14,0.43-2.24,0.84-3.38,1.27c0.38,1.11,0.73,2.12,1.13,3.27c-0.6,0.23-1.17,0.44-1.84,0.7c-0.42-1.1-0.81-2.13-1.24-3.23
			c-1.61,0.6-3.14,1.16-4.73,1.75c0.27,0.8,0.51,1.53,0.83,2.5c-3.61,0-7.02,0-10.58,0c2.68-2.19,5.33-4.37,8.09-6.63
			c0.33,0.8,0.62,1.48,0.96,2.28c1.58-0.58,3.13-1.16,4.79-1.78c-0.37-1.06-0.72-2.06-1.12-3.2c0.62-0.23,1.18-0.44,1.86-0.69
			c0.39,1.07,0.75,2.02,1.17,3.16c1.14-0.43,2.23-0.83,3.4-1.27c-0.37-1.08-0.7-2.05-1.07-3.13c0.61-0.22,1.19-0.43,1.86-0.68
			c0.39,1.04,0.76,2,1.16,3.07c0.97-0.36,1.89-0.71,2.93-1.1c-0.32-1-0.63-1.97-0.98-3.06c0.62-0.23,1.19-0.43,1.83-0.66
			c0.38,1.02,0.73,1.94,1.13,2.98c2.38-0.89,4.69-1.75,6.69-2.5c-0.08-1.22-0.23-2.26-0.19-3.3c0.08-2.07,0.27-4.13,0.42-6.37
			c-5.49,0-10.92,0-16.43,0c0-1.18,0-2.19,0-3.27c5.54,0,11.04,0,16.66,0c0.2-2.62,0.39-5.2,0.6-7.88
			c-4.98-2.27-9.95-4.53-15.03-6.85c-0.29,0.57-0.57,1.12-0.92,1.82c-2.06-1.93-4.04-3.79-6.29-5.91c3.05,0.3,5.75,0.57,8.57,0.85
			c-0.26,0.66-0.47,1.2-0.72,1.83c0.22,0.13,0.44,0.29,0.68,0.4c4.25,1.94,8.5,3.88,12.77,5.78c0.37,0.17,1.06,0.15,1.35-0.09
			c2.43-2.02,4.79-4.11,7.28-6.26c-3.32-4.38-6.62-8.73-10.01-13.21c0.84-0.64,1.65-1.26,2.54-1.94c3.33,4.37,6.58,8.66,9.91,13.03
			c1.79-1.55,3.52-3.02,5.2-4.53c0.19-0.17,0.28-0.67,0.19-0.93c-0.75-2.1-1.55-4.19-2.38-6.39c-1.1,0.41-2.16,0.81-3.32,1.24
			c-0.24-0.61-0.45-1.15-0.72-1.83c1.08-0.44,2.13-0.87,3.31-1.36c-0.43-1.15-0.85-2.25-1.28-3.4c-1.17,0.44-2.24,0.85-3.39,1.29
			c-0.24-0.6-0.46-1.14-0.72-1.82c1.13-0.47,2.21-0.93,3.38-1.41c-0.37-1-0.71-1.92-1.1-2.95c-1.2,0.45-2.3,0.87-3.48,1.31
			c-0.24-0.59-0.47-1.14-0.75-1.81c1.17-0.49,2.29-0.96,3.48-1.45c-0.6-1.63-1.18-3.19-1.8-4.85c-0.78,0.25-1.51,0.49-2.49,0.81
			c0-3.59,0-7.02,0-10.55c2.18,2.66,4.34,5.3,6.6,8.07c-0.79,0.34-1.49,0.65-2.27,0.99c0.6,1.6,1.18,3.16,1.8,4.81
			c0.99-0.36,1.91-0.7,2.92-1.07c0.23,0.58,0.44,1.13,0.72,1.81c-0.95,0.4-1.85,0.78-2.9,1.22c0.37,0.98,0.72,1.93,1.1,2.96
			c1.02-0.38,1.94-0.73,2.98-1.12c0.24,0.59,0.46,1.16,0.72,1.82c-0.98,0.41-1.89,0.8-2.95,1.24c0.41,1.12,0.81,2.22,1.24,3.4
			c1.03-0.39,1.99-0.75,3.08-1.16c0.24,0.6,0.48,1.17,0.74,1.83c-1.02,0.43-1.97,0.82-3.07,1.28c0.64,1.74,1.42,3.4,1.86,5.15
			c0.43,1.7,1.35,2.25,3.01,2.25c1.95,0,3.89,0.22,5.97,0.35c-0.17-5.76-0.33-11.41-0.5-17.19c1.08-0.06,2.05-0.11,3.19-0.18
			c0.09,2.51,0.18,4.93,0.26,7.35c0.1,3.12,0.2,6.23,0.26,9.35c0.01,0.7,0.22,0.99,0.95,1.03c2.31,0.13,4.62,0.35,6.94,0.45
			c0.4,0.02,1.03-0.28,1.18-0.6c2.36-5.06,4.66-10.16,7-15.29c-0.59-0.31-1.14-0.61-1.8-0.96c1.93-2.05,3.8-4.04,5.9-6.26
			c-0.3,3.03-0.57,5.71-0.85,8.58c-0.65-0.27-1.22-0.5-1.89-0.78c-0.83,1.82-1.63,3.59-2.44,5.36c-1.57,3.45-3.12,6.91-4.73,10.35
			c-0.29,0.63-0.27,1.05,0.21,1.58c1.6,1.77,3.15,3.59,4.77,5.46c4.76-3.9,9.46-7.75,14.26-11.68c0.68,0.82,1.33,1.6,2.05,2.46
			c-4.75,3.91-9.44,7.75-14.21,11.67c1.64,1.89,3.2,3.7,4.78,5.49c0.14,0.15,0.52,0.24,0.72,0.17c3.02-1.11,6.04-2.25,9.12-3.41
			c-0.36-1.04-0.68-1.98-1.04-3.03c0.61-0.23,1.18-0.45,1.85-0.71c0.38,1.01,0.75,1.97,1.14,3.01c0.99-0.37,1.91-0.72,2.94-1.1
			c-0.34-1-0.65-1.93-0.99-2.97c0.59-0.22,1.14-0.42,1.82-0.68c0.38,0.97,0.74,1.87,1.14,2.9c1.13-0.42,2.2-0.82,3.37-1.25
			c-0.32-0.95-0.63-1.84-0.98-2.89c0.59-0.22,1.17-0.43,1.85-0.68c0.36,0.95,0.7,1.83,1.08,2.82c1.53-0.57,3-1.11,4.55-1.69
			c-0.28-0.79-0.52-1.49-0.86-2.46c3.6,0,7.03,0,10.55,0c-2.64,2.16-5.3,4.34-8.06,6.59c-0.34-0.81-0.62-1.49-0.95-2.29
			c-1.51,0.57-2.99,1.12-4.57,1.71c0.42,1.23,0.81,2.38,1.24,3.65c-0.62,0.23-1.19,0.44-1.86,0.68c-0.45-1.21-0.88-2.36-1.34-3.59
			c-1.13,0.42-2.19,0.82-3.38,1.26c0.39,1.18,0.76,2.3,1.18,3.55c-0.62,0.23-1.19,0.45-1.84,0.69c-0.44-1.2-0.84-2.31-1.28-3.51
			c-2.9,1.08-5.7,2.13-8.49,3.18c-1.76,0.66-3.52,1.29-5.26,1.99c-0.36,0.14-0.86,0.49-0.89,0.78c-0.23,2.41-0.36,4.84-0.54,7.46
			c6.32,0,12.54,0,18.84,0c0,1.17,0,2.15,0,3.24c-6.31,0-12.64,0-19.07,0c-0.18,2.6-0.4,5.09-0.52,7.6
			c-0.05,0.99-0.35,1.71-1.14,2.35c-1.8,1.46-3.52,3.02-5.37,4.62c3.83,5.04,7.63,10.06,11.51,15.17c-0.83,0.64-1.64,1.27-2.53,1.95
			c-3.8-4.99-7.56-9.94-11.43-15.02c-1.56,1.36-3.07,2.64-4.53,3.98c-0.16,0.15-0.19,0.6-0.1,0.84c1.17,3.18,2.37,6.35,3.6,9.64
			c1.08-0.4,2.11-0.77,3.28-1.2c0.25,0.59,0.48,1.16,0.75,1.81c-1.11,0.45-2.13,0.87-3.29,1.35c0.42,1.14,0.83,2.24,1.27,3.41
			c1.14-0.44,2.17-0.83,3.35-1.28c0.25,0.59,0.48,1.15,0.77,1.83c-1.13,0.46-2.19,0.88-3.39,1.36c0.37,0.98,0.72,1.93,1.11,2.97
			c1.18-0.44,2.28-0.86,3.46-1.3c0.25,0.61,0.47,1.16,0.73,1.82c-1.12,0.47-2.21,0.92-3.45,1.43c0.57,1.54,1.13,3.06,1.72,4.67
			c0.78-0.25,1.51-0.49,2.49-0.81C94.66,126.7,94.66,130.11,94.66,133.67z M61.77,48.35c-0.27,0.2-0.43,0.31-0.57,0.43
			c-4.26,3.68-8.53,7.37-12.79,11.06c-1.05,0.91-0.99,1.21,0.29,1.8c6.87,3.12,13.73,6.24,20.6,9.36c0.31,0.14,0.62,0.25,1.12,0.44
			C67.49,63.64,64.65,56.03,61.77,48.35z M63.52,47.43c2.93,7.83,5.8,15.47,8.77,23.42c3.42-7.51,6.68-14.7,10.03-22.06
			C75.97,48.33,69.86,47.89,63.52,47.43z M69.85,72.87c-7.58-3.45-14.86-6.76-22.25-10.13c-0.22,2.92-0.44,5.7-0.65,8.49
			c-0.2,2.79-0.4,5.58-0.57,8.37c-0.07,1.2,0.56,1.83,1.47,1.49C55.07,78.41,62.28,75.7,69.85,72.87z M73.63,71.45
			c7.37-2.76,14.44-5.41,21.68-8.12c-3.98-4.59-7.84-9.06-11.79-13.61C80.2,57.01,76.98,64.08,73.63,71.45z M48.57,82.93
			c3.56,4.11,6.99,8.11,10.46,12.06c0.77,0.87,1.99,0.63,2.46-0.41c2.84-6.24,5.67-12.48,8.5-18.73c0.14-0.3,0.25-0.62,0.44-1.12
			C63.09,77.5,55.94,80.17,48.57,82.93z M62.63,95.61c5.47,0.4,10.72,0.8,15.97,1.18c1.11,0.08,1.25-0.16,0.84-1.27
			c-1.79-4.78-3.59-9.56-5.38-14.34c-0.69-1.85-1.39-3.7-2.19-5.85C68.73,82.22,65.71,88.84,62.63,95.61z M95.67,65.29
			c-7.15,2.68-14.1,5.28-21.35,8c6.87,3.12,13.42,6.1,20.11,9.15C94.84,76.68,95.25,71.08,95.67,65.29z M81.35,95.03
			c4.38-3.8,8.59-7.45,12.83-11.13c-6.81-3.08-13.51-6.12-20.47-9.27C76.3,81.55,78.79,88.2,81.35,95.03z"/>
		<path class="st0" d="M96.97,83.61c5.66,2.57,11.28,5.13,16.98,7.72c0.3-0.57,0.58-1.12,0.94-1.81c2.05,1.93,4.04,3.79,6.28,5.9
			c-3.05-0.3-5.74-0.57-8.57-0.85c0.26-0.66,0.47-1.2,0.72-1.83c-0.3-0.16-0.59-0.34-0.89-0.48c-4.82-2.2-9.64-4.42-14.48-6.57
			C97.02,85.26,96.44,84.82,96.97,83.61z"/>
		<path class="st0" d="M108.14,64.52c-0.31-0.86-0.57-1.6-0.87-2.44c0.64-0.25,1.22-0.47,1.88-0.72c0.31,0.86,0.58,1.64,0.88,2.47
			C109.4,64.06,108.85,64.27,108.14,64.52z"/>
		<path d="M61.77,48.35c2.88,7.68,5.73,15.29,8.65,23.09c-0.5-0.19-0.81-0.3-1.12-0.44c-6.87-3.12-13.74-6.24-20.6-9.36
			c-1.28-0.58-1.34-0.89-0.29-1.8c4.26-3.69,8.52-7.37,12.79-11.06C61.34,48.66,61.5,48.55,61.77,48.35z M68.61,69.56
			c-2.5-6.67-4.88-13.01-7.31-19.49c-4.17,3.61-8.14,7.04-12.24,10.59C55.61,63.64,61.98,66.54,68.61,69.56z"/>
		<path d="M63.52,47.43c6.34,0.46,12.45,0.9,18.8,1.36c-3.35,7.36-6.62,14.55-10.03,22.06C69.32,62.9,66.46,55.26,63.52,47.43z
			 M72.39,68.14c2.84-6.24,5.57-12.25,8.39-18.44c-5.3-0.38-10.43-0.75-15.73-1.13C67.52,55.16,69.91,61.53,72.39,68.14z"/>
		<path d="M69.85,72.87c-7.57,2.83-14.78,5.54-21.99,8.22c-0.91,0.34-1.54-0.29-1.47-1.49c0.16-2.79,0.36-5.58,0.57-8.37
			c0.2-2.79,0.42-5.57,0.65-8.49C54.99,66.11,62.26,69.42,69.85,72.87z M47.34,80.19c6.67-2.5,13.12-4.91,19.8-7.42
			c-6.31-2.87-12.38-5.63-18.64-8.48C48.11,69.62,47.73,74.78,47.34,80.19z"/>
		<path d="M73.63,71.45c3.35-7.37,6.57-14.44,9.89-21.73c3.95,4.56,7.81,9.02,11.79,13.61C88.06,66.05,80.99,68.69,73.63,71.45z
			 M93.54,62.89c-3.28-3.79-6.46-7.46-9.76-11.26c-2.74,6.02-5.4,11.87-8.18,17.97C81.69,67.32,87.51,65.15,93.54,62.89z"/>
		<path d="M48.57,82.93c7.37-2.76,14.52-5.44,21.87-8.19c-0.19,0.49-0.3,0.81-0.44,1.12c-2.83,6.24-5.67,12.49-8.5,18.73
			c-0.47,1.03-1.7,1.28-2.46,0.41C55.56,91.04,52.13,87.05,48.57,82.93z M68.55,76.56c-6.21,2.33-12.15,4.55-18.22,6.83
			c3.16,3.64,6.17,7.1,9.16,10.58c0.61,0.71,0.92,0.51,1.26-0.23C63.3,88.11,65.86,82.48,68.55,76.56z"/>
		<path d="M62.63,95.61c3.08-6.77,6.09-13.39,9.23-20.29c0.81,2.15,1.5,4.01,2.19,5.85c1.79,4.78,3.59,9.56,5.38,14.34
			c0.42,1.11,0.27,1.35-0.84,1.27C73.35,96.42,68.1,96.02,62.63,95.61z M71.77,78.02c-2.58,5.67-5.05,11.11-7.59,16.7
			c4.83,0.34,9.43,0.67,14.23,1.02C76.18,89.78,74.02,84.02,71.77,78.02z"/>
		<path d="M95.67,65.29c-0.42,5.79-0.82,11.38-1.24,17.15c-6.69-3.04-13.24-6.02-20.11-9.15C81.56,70.58,88.51,67.97,95.67,65.29z
			 M77.02,73.39c5.59,2.54,10.95,4.98,16.49,7.5c0.34-4.73,0.67-9.29,1.01-14.06C88.63,69.03,82.94,71.17,77.02,73.39z"/>
		<path d="M81.35,95.03c-2.56-6.83-5.05-13.48-7.64-20.39c6.96,3.15,13.65,6.18,20.47,9.27C89.94,87.59,85.73,91.24,81.35,95.03z
			 M81.79,93.26c3.51-3.04,6.94-6,10.47-9.06c-5.58-2.54-11.01-5.01-16.7-7.6C77.69,82.31,79.71,87.71,81.79,93.26z"/>
	</g>
</g>
</svg>
